<svg xmlns="http://www.w3.org/2000/svg" viewBox="0 0 54.16 47.22"><defs><style>.cls-1{fill:#4a4f54;}.cls-2{fill:#fff;}</style></defs><title>car-icon</title><g id="Layer_2" data-name="Layer 2"><g id="Layer_1-2" data-name="Layer 1"><path class="cls-1" d="M2.71,39.26a3.13,3.13,0,0,1-1.43-.93c-.47-.5-1-2.61-1.21-4.7A2.68,2.68,0,0,0,0,34V44.55A2.66,2.66,0,0,0,2.7,47.22H6.1a2.66,2.66,0,0,0,2.66-2.66V39.62C5.26,39.45,2.87,39.3,2.71,39.26Z"/><path class="cls-1" d="M51.45,39.26a3.13,3.13,0,0,0,1.43-.93c.47-.5,1-2.61,1.21-4.7a2.68,2.68,0,0,1,0,.33V44.55a2.66,2.66,0,0,1-2.66,2.66h-3.4a2.66,2.66,0,0,1-2.66-2.66V39.62C48.9,39.45,51.29,39.3,51.45,39.26Z"/><path class="cls-1" d="M53.83,23.29c-.14-.84-1.43-2.06-1.66-2.54a23,23,0,0,1-.47-3.17,8.79,8.79,0,0,0-1.77-2.34l-.62-.07c0-.13-.11-.46-.22-.92l.24-.19a1.32,1.32,0,0,0,.75.32c.33,0,2.79-.13,3.12-.2s.83-.43.8-1.43a7.38,7.38,0,0,0-.4-2.52,3.08,3.08,0,0,0-1.66-.4,13.79,13.79,0,0,0-2.42.23,1,1,0,0,0-.55.8c0,.26,0,1.11,0,1.85H48.7c-.15-.56-.32-1.17-.51-1.82A69.35,69.35,0,0,0,45,2.69,3,3,0,0,0,42.68.81C41.87.72,33.93,0,27.13,0H27c-6.8,0-14.74.72-15.55.81A3,3,0,0,0,9.18,2.69,69.36,69.36,0,0,0,6,10.9c-.19.64-.36,1.25-.51,1.82H5.15c0-.73,0-1.59,0-1.85a1,1,0,0,0-.55-.8,13.79,13.79,0,0,0-2.42-.23,3.08,3.08,0,0,0-1.66.4,7.38,7.38,0,0,0-.4,2.52c0,1,.46,1.36.8,1.43s2.79.2,3.12.2a1.32,1.32,0,0,0,.75-.32l.24.19c-.11.46-.19.79-.22.92l-.62.07a8.79,8.79,0,0,0-1.77,2.34A23,23,0,0,1,2,20.75c-.23.47-1.52,1.7-1.66,2.54S-.11,31.2,0,33.37s.74,4.45,1.23,5a3.13,3.13,0,0,0,1.43.93c.17,0,3,.21,7,.39a12.06,12.06,0,0,1-.36-3.28,22.12,22.12,0,0,1,.91-4.9,1.51,1.51,0,0,1,1.7-1c.62,0,13.23,0,15.18,0s14.56,0,15.18,0a1.51,1.51,0,0,1,1.7,1,22.11,22.11,0,0,1,.91,4.9,12.06,12.06,0,0,1-.36,3.28c4-.18,6.78-.36,7-.39a3.13,3.13,0,0,0,1.43-.93c.49-.52,1.08-2.8,1.23-5S54,24.13,53.83,23.29Z"/><circle class="cls-2" cx="5.19" cy="31.48" r="0.96"/><circle class="cls-2" cx="48.97" cy="31.48" r="0.96"/><path class="cls-2" d="M5.19,21.46a2.51,2.51,0,1,0,4.43-1.61c-1.1,0-2.44-.08-3.69-.17A2.5,2.5,0,0,0,5.19,21.46ZM7.7,20.22a1.24,1.24,0,1,1-1.24,1.24A1.24,1.24,0,0,1,7.7,20.22Z"/><circle class="cls-2" cx="10.67" cy="23.29" r="1.91"/><path class="cls-2" d="M48.23,19.68c-1.25.08-2.58.13-3.69.17a2.51,2.51,0,1,0,3.69-.17Zm-.53,1.78a1.24,1.24,0,1,1-1.24-1.24A1.24,1.24,0,0,1,47.7,21.46Z"/><circle class="cls-2" cx="43.49" cy="23.29" r="1.91"/><path class="cls-2" d="M46.25,9.18c-.36-1-2.53-6.49-2.53-6.49S31.28,2,27.13,1.95H27c-4.16.05-16.59.75-16.59.75S8.27,8.14,7.91,9.18s-1,3,2,3.14,16.3,0,17.18,0,14.25.16,17.18,0S46.61,10.22,46.25,9.18Z"/><path class="cls-2" d="M27.08,20.06l-13.16-.15c.25,1.28.59,3.09.67,3.38.13.45.17,1.5,2.38,1.54,1.71,0,7.55,0,10.11,0s8.4,0,10.11,0c2.22,0,2.26-1.09,2.38-1.54.08-.29.43-2.09.67-3.38Z"/><path class="cls-1" d="M44.86,36.38a22.11,22.11,0,0,0-.91-4.9,1.51,1.51,0,0,0-1.7-1c-.6,0-12.48,0-15,0h-.41c-2.49,0-14.38,0-15,0a1.51,1.51,0,0,0-1.7,1,22.11,22.11,0,0,0-.91,4.9,12.06,12.06,0,0,0,.36,3.28c4.83.22,11.41.45,17.17.46h.51c5.76,0,12.34-.24,17.17-.46A12.06,12.06,0,0,0,44.86,36.38Z"/></g></g></svg>