<svg xmlns="http://www.w3.org/2000/svg" viewBox="0 0 30.28 27.12"><defs><style>.cls-1{fill:#fff;}</style></defs><title>F6S</title><g id="Layer_2" data-name="Layer 2"><g id="Layer_1-2" data-name="Layer 1"><path class="cls-1" d="M9.69,13.6q0-5.69,0-11.38c0-1.69.5-2.2,2.16-2.2s3.47,0,5.21,0a1.46,1.46,0,0,1,1.68,1.64c0,1.35,0,2.7,0,4,0,.59-.22.79-.8.78-2.75-.05-2.17.33-2.27-2.11,0-.41-.16-1.13-.34-1.16a8.16,8.16,0,0,0-2.17,0c-.1,0-.21.44-.22.68,0,2.12,0,4.24,0,6.36,0,.62.26.87.86.87,1.06,0,2.12,0,3.18,0s1.74.51,1.74,1.68q0,6.27,0,12.54c0,1.19-.52,1.69-1.72,1.7q-2.7,0-5.4,0c-1.39,0-1.92-.56-1.92-1.93Q9.68,19.38,9.69,13.6Zm6,5.59c0-1.29-.05-2.57,0-3.86.06-1.07-.54-1.13-1.33-1.1s-1.48-.11-1.45,1.08c.07,2.38,0,4.76,0,7.13C13,24,13,24,14.55,24h.19c.72.08,1-.25,1-.95C15.68,21.76,15.7,20.47,15.7,19.18Z"/><path class="cls-1" d="M27.14,19.06c0-1.32,0-2.65,0-4a.83.83,0,0,0-.85-.86c-1.13,0-2.25,0-3.38,0-1.33,0-2-.81-1.76-2.31a36.57,36.57,0,0,0,0-9.57C21,.86,21.59,0,22.94,0q2.85,0,5.69,0a1.46,1.46,0,0,1,1.62,1.53c0,1.41,0,2.83,0,4.24,0,.24-.42.46-.65.68,0,0-.06,0-.09,0-2.88,0-2.27.38-2.37-2.2,0-.39-.21-1.07-.4-1.1a7.8,7.8,0,0,0-2.07.1c-.08,0-.16.39-.17.6,0,2.15,0,4.31,0,6.46,0,.58.24.82.8.81,1,0,2.06,0,3.09,0A1.69,1.69,0,0,1,30.25,13c0,4.18,0,8.36,0,12.54a1.55,1.55,0,0,1-1.51,1.54c-2,0-4,0-6,0a1.68,1.68,0,0,1-1.63-1.66c0-1.9,0-3.79,0-5.69,0-.56.15-.79.76-.82,2.6-.11,2.6-.13,2.6,2.45,0,.42,0,.84,0,1.25A1.38,1.38,0,0,0,25.86,24c1.28,0,1.28,0,1.28-1.27S27.14,20.28,27.14,19.06Z"/><path class="cls-1" d="M0,13.53C0,9.42,0,5.3,0,1.19,0,.25.3,0,1.22,0c2,.06,4,0,6,0,.71,0,1,.2,1,.93-.06,2.5.27,2.1-2.06,2.14H3.87c-.56,0-.8.26-.8.83,0,2.12,0,4.24,0,6.36,0,.69.31.91.94.89s1,0,1.54,0c.68,0,.89.28.89.92,0,2.6.22,2.1-2,2.15-1.3,0-1.31,0-1.31,1.27,0,3.54,0,7.07,0,10.61,0,.74-.19,1-1,1C-.31,27.05,0,27.39,0,25,0,21.18,0,17.36,0,13.53Z"/></g></g></svg>