<svg xmlns="http://www.w3.org/2000/svg" viewBox="0 0 28.36 27.96"><defs><style>.cls-1{fill:#fff;}</style></defs><title>in</title><g id="Layer_2" data-name="Layer 2"><g id="Layer_1-2" data-name="Layer 1"><path class="cls-1" d="M9.7,28V8.84h5.92c.23,0,.28.07.28.29,0,.74,0,1.47,0,2.27.22-.29.4-.53.59-.76a5.71,5.71,0,0,1,4-2.16,7.48,7.48,0,0,1,4.16.66,5.93,5.93,0,0,1,2.64,2.56,10.06,10.06,0,0,1,1.1,4.91c0,3.45,0,6.9,0,10.34,0,.05,0,.11,0,0H21.7V17.48a2.44,2.44,0,0,0,.24-2.4,2.72,2.72,0,0,0-3-1.86A3.23,3.23,0,0,0,16,15.6a4.68,4.68,0,0,0-.15,1.47c0,3.25,0,6.49,0,9.74,0,.3,0,.3-.3,1.15H9.7Z"/><path class="cls-1" d="M6.7,27H.91a.27.27,0,0,1-.27-.27q0-8.88,0-17.75c0-.54.31-.15,3.26,0A8.45,8.45,0,0,0,6.25,8.7a1.49,1.49,0,0,1,.45,0Z"/><path class="cls-1" d="M3.39,6.33A3.26,3.26,0,0,1,.5,4.88,3.1,3.1,0,0,1,2.22.2,3.72,3.72,0,0,1,5.55.64a3,3,0,0,1,1.25,3,2.85,2.85,0,0,1-2,2.45,11,11,0,0,1-1.4.31Z"/></g></g></svg>