<svg xmlns="http://www.w3.org/2000/svg" viewBox="0 0 54 54"><defs><style>.cls-1{fill:none;stroke:#4a4f54;stroke-miterlimit:10;stroke-width:4px;}.cls-2{fill:#4a4f54;}</style></defs><title>network-icon</title><g id="Layer_2" data-name="Layer 2"><g id="Layer_1-2" data-name="Layer 1"><line class="cls-1" x1="27" y1="4.57" x2="27" y2="49.43"/><polygon class="cls-2" points="20.22 12.54 27 5.75 33.78 12.54 33.78 6.78 27 0 20.22 6.78 20.22 12.54"/><polygon class="cls-2" points="20.22 41.46 27 48.25 33.78 41.46 33.78 47.22 27 54 20.22 47.22 20.22 41.46"/><line class="cls-1" x1="49.43" y1="27" x2="4.57" y2="27"/><polygon class="cls-2" points="41.46 20.22 48.25 27 41.46 33.78 47.22 33.78 54 27 47.22 20.22 41.46 20.22"/><polygon class="cls-2" points="12.54 20.22 5.75 27 12.54 33.78 6.78 33.78 0 27 6.78 20.22 12.54 20.22"/><path class="cls-2" d="M27,19.45,34.55,27,27,34.55,19.45,27,27,19.45m0-5.66L13.79,27,27,40.21,40.21,27,27,13.79Z"/></g></g></svg>