<svg xmlns="http://www.w3.org/2000/svg" viewBox="0 0 30.59 24.85"><defs><style>.cls-1{fill:#fff;}</style></defs><title>twitter-ic</title><g id="Layer_2" data-name="Layer 2"><g id="Layer_1-2" data-name="Layer 1"><path class="cls-1" d="M30.59,2.94a12.53,12.53,0,0,1-3.6,1A6.3,6.3,0,0,0,29.75.46a12.65,12.65,0,0,1-4,1.52A6.28,6.28,0,0,0,15,5.31a6.45,6.45,0,0,0,.09,2.4A17.82,17.82,0,0,1,2.13,1.15,6.28,6.28,0,0,0,4.07,9.52a6.28,6.28,0,0,1-2.84-.79v.08a6.28,6.28,0,0,0,5,6.15,6.36,6.36,0,0,1-1.65.22,6,6,0,0,1-1.18-.12,6.28,6.28,0,0,0,5.86,4.36A12.59,12.59,0,0,1,1.5,22.11,13.34,13.34,0,0,1,0,22a17.74,17.74,0,0,0,9.62,2.82c11.55,0,17.86-9.56,17.86-17.86l0-.81A12.53,12.53,0,0,0,30.59,2.94Z"/></g></g></svg>